<mxfile host="app.diagrams.net" modified="2022-04-21T01:37:26.112Z" agent="5.0 (Windows NT 10.0; Win64; x64) AppleWebKit/537.36 (KHTML, like Gecko) Chrome/100.0.4896.88 Safari/537.36" etag="VTu7rj5kKXNkHMPgOpur" version="17.4.6" type="github">
  <diagram id="rQxfGGPRiOw1MZwm1rkX" name="Page-1">
    <mxGraphModel dx="1422" dy="794" grid="1" gridSize="10" guides="1" tooltips="1" connect="1" arrows="1" fold="1" page="1" pageScale="1" pageWidth="1200" pageHeight="1920" math="0" shadow="0">
      <root>
        <mxCell id="0" />
        <mxCell id="1" parent="0" />
        <mxCell id="Is1xz_cja01nVxo3mf6A-1" value="" style="whiteSpace=wrap;html=1;aspect=fixed;" parent="1" vertex="1">
          <mxGeometry x="100" y="90" width="80" height="80" as="geometry" />
        </mxCell>
        <mxCell id="tbwLruYFZKSNGMeH2TF5-1" value="" style="whiteSpace=wrap;html=1;aspect=fixed;" vertex="1" parent="1">
          <mxGeometry x="300" y="90" width="80" height="80" as="geometry" />
        </mxCell>
        <mxCell id="tbwLruYFZKSNGMeH2TF5-2" value="" style="whiteSpace=wrap;html=1;aspect=fixed;" vertex="1" parent="1">
          <mxGeometry x="150" y="290" width="80" height="80" as="geometry" />
        </mxCell>
        <mxCell id="tbwLruYFZKSNGMeH2TF5-3" value="" style="whiteSpace=wrap;html=1;aspect=fixed;" vertex="1" parent="1">
          <mxGeometry x="510" y="210" width="80" height="80" as="geometry" />
        </mxCell>
        <mxCell id="tbwLruYFZKSNGMeH2TF5-4" value="" style="whiteSpace=wrap;html=1;aspect=fixed;" vertex="1" parent="1">
          <mxGeometry x="480" y="50" width="80" height="80" as="geometry" />
        </mxCell>
      </root>
    </mxGraphModel>
  </diagram>
</mxfile>
